<svg xmlns="http://www.w3.org/2000/svg" xmlns:xlink="http://www.w3.org/1999/xlink" width="500" zoomAndPan="magnify" viewBox="0 0 375 374.999991" height="500" preserveAspectRatio="xMidYMid meet" version="1.0"><defs><g/><clipPath id="5dfc067dfd"><path d="M 21 146.234375 L 63 146.234375 L 63 189 L 21 189 Z M 21 146.234375 " clip-rule="nonzero"/></clipPath><clipPath id="9bb69906ff"><path d="M 50 189 L 86 189 L 86 228.734375 L 50 228.734375 Z M 50 189 " clip-rule="nonzero"/></clipPath><clipPath id="ae156626b4"><path d="M 41 197 L 73 197 L 73 228.734375 L 41 228.734375 Z M 41 197 " clip-rule="nonzero"/></clipPath><clipPath id="8ef4779dcc"><path d="M 30 146.234375 L 92.550781 146.234375 L 92.550781 222 L 30 222 Z M 30 146.234375 " clip-rule="nonzero"/></clipPath><clipPath id="b96ff32d98"><path d="M 25 146.234375 L 78 146.234375 L 78 202 L 25 202 Z M 25 146.234375 " clip-rule="nonzero"/></clipPath></defs><g clip-path="url(#5dfc067dfd)"><path fill="#ffffff" d="M 22.867188 188.601562 C 21.761719 182.898438 26.835938 177.550781 26.886719 177.496094 L 26.890625 177.496094 L 62.394531 146.238281 L 54.390625 146.238281 L 25.292969 172.292969 C 22.070312 175.179688 20.5625 179.421875 21.257812 183.636719 C 21.648438 186 22.492188 187.859375 22.867188 188.601562 " fill-opacity="1" fill-rule="nonzero"/></g><g clip-path="url(#9bb69906ff)"><path fill="#ff883e" d="M 50.453125 194.378906 L 78.40625 228.726562 L 85.960938 228.726562 L 54.941406 189.890625 L 50.453125 194.378906 " fill-opacity="1" fill-rule="nonzero"/></g><g clip-path="url(#ae156626b4)"><path fill="#ff883e" d="M 41.742188 202.707031 L 62.601562 228.726562 L 72.511719 228.726562 L 47.195312 197.394531 L 41.742188 202.707031 " fill-opacity="1" fill-rule="nonzero"/></g><g clip-path="url(#8ef4779dcc)"><path fill="#ffffff" d="M 45.039062 221.203125 C 44.976562 221.140625 44.90625 221.074219 44.839844 221.003906 C 44.804688 220.964844 44.765625 220.925781 44.726562 220.886719 C 44.683594 220.84375 44.636719 220.796875 44.589844 220.75 C 44.550781 220.710938 44.515625 220.671875 44.476562 220.632812 C 43.375 219.488281 41.679688 217.574219 40.15625 215.21875 C 39.050781 213.511719 37.855469 211.375 37.136719 209.054688 C 36.5 205.976562 37.46875 202.71875 39.71875 200.417969 L 92.652344 146.238281 L 82.636719 146.238281 L 34.871094 193.6875 C 34.15625 194.398438 23.949219 204.5625 36.71875 221.703125 L 45.554688 221.703125 C 45.457031 221.609375 45.289062 221.449219 45.070312 221.230469 L 45.039062 221.203125 " fill-opacity="1" fill-rule="nonzero"/></g><g clip-path="url(#b96ff32d98)"><path fill="#ffffff" d="M 69.332031 146.238281 L 69.320312 146.246094 L 31.1875 181.796875 L 30.179688 182.738281 C 27.554688 185.1875 25.835938 188.460938 25.390625 191.96875 L 25.386719 191.984375 C 25.351562 192.195312 25.328125 192.402344 25.320312 192.605469 L 25.320312 192.625 C 25.273438 193.238281 25.261719 193.863281 25.292969 194.492188 C 25.40625 196.667969 26 199.019531 27.480469 201.296875 C 27.480469 201.296875 26.828125 195.855469 29.875 192.769531 L 77.238281 146.261719 L 77.265625 146.238281 L 69.332031 146.238281 " fill-opacity="1" fill-rule="nonzero"/></g><g fill="#ffffff" fill-opacity="1"><g transform="translate(92.661567, 190.419195)"><g><path d="M 20.4375 0 L 13.25 -10.6875 L 9.640625 -6.6875 L 9.640625 0 L 2.71875 0 L 2.71875 -27.203125 L 9.640625 -27.203125 L 9.640625 -15.421875 L 20.046875 -27.203125 L 28.0625 -27.203125 L 17.953125 -15.9375 L 28.71875 0 Z M 20.4375 0 "/></g></g></g><g fill="#ffffff" fill-opacity="1"><g transform="translate(123.62409, 190.419195)"><g><path d="M 19.125 0 L 15.078125 -7.65625 L 9.640625 -7.65625 L 9.640625 0 L 2.71875 0 L 2.71875 -27.203125 L 14.890625 -27.203125 C 18.484375 -27.203125 21.265625 -26.378906 23.234375 -24.734375 C 25.203125 -23.085938 26.1875 -20.75 26.1875 -17.71875 C 26.1875 -13.519531 24.539062 -10.601562 21.25 -8.96875 L 26.96875 0 Z M 9.640625 -13.09375 L 14.890625 -13.09375 C 16.390625 -13.09375 17.550781 -13.46875 18.375 -14.21875 C 19.207031 -14.96875 19.625 -16.054688 19.625 -17.484375 C 19.625 -18.878906 19.207031 -19.941406 18.375 -20.671875 C 17.550781 -21.398438 16.390625 -21.765625 14.890625 -21.765625 L 9.640625 -21.765625 Z M 9.640625 -13.09375 "/></g></g></g><g fill="#ffffff" fill-opacity="1"><g transform="translate(153.693104, 190.419195)"><g><path d="M 24.015625 -21.765625 L 9.640625 -21.765625 L 9.640625 -16.359375 L 22.609375 -16.359375 L 22.609375 -10.921875 L 9.640625 -10.921875 L 9.640625 -5.4375 L 24.4375 -5.4375 L 24.4375 0 L 2.71875 0 L 2.71875 -27.203125 L 24.015625 -27.203125 Z M 24.015625 -21.765625 "/></g></g></g><g fill="#ffffff" fill-opacity="1"><g transform="translate(181.819715, 190.419195)"><g><path d="M 13.171875 -27.515625 C 17.242188 -27.515625 20.820312 -26.503906 23.90625 -24.484375 L 21.296875 -19.078125 C 19.867188 -19.910156 18.335938 -20.59375 16.703125 -21.125 C 15.078125 -21.65625 13.707031 -21.921875 12.59375 -21.921875 C 10.59375 -21.921875 9.59375 -21.257812 9.59375 -19.9375 C 9.59375 -19.082031 10.082031 -18.394531 11.0625 -17.875 C 12.050781 -17.351562 13.25 -16.90625 14.65625 -16.53125 C 16.070312 -16.15625 17.484375 -15.703125 18.890625 -15.171875 C 20.304688 -14.640625 21.503906 -13.773438 22.484375 -12.578125 C 23.472656 -11.390625 23.96875 -9.890625 23.96875 -8.078125 C 23.96875 -5.460938 22.945312 -3.421875 20.90625 -1.953125 C 18.863281 -0.492188 16.257812 0.234375 13.09375 0.234375 C 10.84375 0.234375 8.613281 -0.148438 6.40625 -0.921875 C 4.207031 -1.703125 2.289062 -2.769531 0.65625 -4.125 L 3.34375 -9.4375 C 4.71875 -8.25 6.335938 -7.269531 8.203125 -6.5 C 10.066406 -5.738281 11.722656 -5.359375 13.171875 -5.359375 C 14.285156 -5.359375 15.148438 -5.554688 15.765625 -5.953125 C 16.390625 -6.359375 16.703125 -6.953125 16.703125 -7.734375 C 16.703125 -8.484375 16.347656 -9.109375 15.640625 -9.609375 C 14.929688 -10.117188 14.046875 -10.492188 12.984375 -10.734375 C 11.921875 -10.984375 10.765625 -11.316406 9.515625 -11.734375 C 8.273438 -12.148438 7.125 -12.601562 6.0625 -13.09375 C 5 -13.582031 4.109375 -14.363281 3.390625 -15.4375 C 2.679688 -16.519531 2.328125 -17.8125 2.328125 -19.3125 C 2.328125 -21.800781 3.316406 -23.789062 5.296875 -25.28125 C 7.285156 -26.769531 9.910156 -27.515625 13.171875 -27.515625 Z M 13.171875 -27.515625 "/></g></g></g><g fill="#ffffff" fill-opacity="1"><g transform="translate(208.780869, 190.419195)"><g><path d="M 27.828125 0 L 20.90625 0 L 20.90625 -10.5625 L 9.640625 -10.5625 L 9.640625 0 L 2.71875 0 L 2.71875 -27.203125 L 9.640625 -27.203125 L 9.640625 -16.015625 L 20.90625 -16.015625 L 20.90625 -27.203125 L 27.828125 -27.203125 Z M 27.828125 0 "/></g></g></g><g fill="#ffffff" fill-opacity="1"><g transform="translate(241.258474, 190.419195)"><g><path d="M 27.828125 0 L 21.71875 0 L 9.203125 -16.75 L 9.203125 0 L 2.71875 0 L 2.71875 -27.203125 L 8.828125 -27.203125 L 21.375 -10.421875 L 21.375 -27.203125 L 27.828125 -27.203125 Z M 27.828125 0 "/></g></g></g><g fill="#ffffff" fill-opacity="1"><g transform="translate(273.736079, 190.419195)"><g><path d="M 9.640625 0 L 2.71875 0 L 2.71875 -27.203125 L 9.640625 -27.203125 Z M 9.640625 0 "/></g></g></g><g fill="#ffffff" fill-opacity="1"><g transform="translate(288.032732, 190.419195)"><g><path d="M 20.4375 0 L 13.25 -10.6875 L 9.640625 -6.6875 L 9.640625 0 L 2.71875 0 L 2.71875 -27.203125 L 9.640625 -27.203125 L 9.640625 -15.421875 L 20.046875 -27.203125 L 28.0625 -27.203125 L 17.953125 -15.9375 L 28.71875 0 Z M 20.4375 0 "/></g></g></g><g fill="#ffffff" fill-opacity="1"><g transform="translate(318.995254, 190.419195)"><g><path d="M 27.203125 -27.203125 L 27.203125 -11.421875 C 27.203125 -7.816406 26.085938 -4.957031 23.859375 -2.84375 C 21.628906 -0.738281 18.613281 0.3125 14.8125 0.3125 C 10.96875 0.3125 7.910156 -0.738281 5.640625 -2.84375 C 3.378906 -4.957031 2.25 -7.816406 2.25 -11.421875 L 2.25 -27.203125 L 9.171875 -27.203125 L 9.171875 -11.421875 C 9.171875 -9.609375 9.691406 -8.164062 10.734375 -7.09375 C 11.785156 -6.019531 13.15625 -5.484375 14.84375 -5.484375 C 16.5 -5.484375 17.828125 -6.015625 18.828125 -7.078125 C 19.828125 -8.140625 20.328125 -9.585938 20.328125 -11.421875 L 20.328125 -27.203125 Z M 27.203125 -27.203125 "/></g></g></g><g fill="#ff883e" fill-opacity="1"><g transform="translate(94.911567, 217.215659)"><g><path d="M 3.796875 -9.515625 L 0.0625 -9.515625 L 0.0625 -10.875 L 9.0625 -10.875 L 9.0625 -9.515625 L 5.328125 -9.515625 L 5.328125 0 L 3.796875 0 Z M 3.796875 -9.515625 "/></g></g></g><g fill="#ff883e" fill-opacity="1"><g transform="translate(106.357874, 217.215659)"><g><path d="M 8.90625 0 L 6.546875 -3.34375 C 6.265625 -3.320312 6.039062 -3.3125 5.875 -3.3125 L 3.1875 -3.3125 L 3.1875 0 L 1.625 0 L 1.625 -10.875 L 5.875 -10.875 C 7.28125 -10.875 8.382812 -10.535156 9.1875 -9.859375 C 10 -9.191406 10.40625 -8.265625 10.40625 -7.078125 C 10.40625 -6.242188 10.195312 -5.53125 9.78125 -4.9375 C 9.363281 -4.34375 8.773438 -3.914062 8.015625 -3.65625 L 10.59375 0 Z M 5.828125 -4.625 C 6.804688 -4.625 7.554688 -4.835938 8.078125 -5.265625 C 8.597656 -5.691406 8.859375 -6.296875 8.859375 -7.078125 C 8.859375 -7.867188 8.597656 -8.472656 8.078125 -8.890625 C 7.554688 -9.304688 6.804688 -9.515625 5.828125 -9.515625 L 3.1875 -9.515625 L 3.1875 -4.625 Z M 5.828125 -4.625 "/></g></g></g><g fill="#ff883e" fill-opacity="1"><g transform="translate(119.978072, 217.215659)"><g><path d="M 8.5625 -2.71875 L 2.78125 -2.71875 L 1.578125 0 L -0.015625 0 L 4.90625 -10.875 L 6.453125 -10.875 L 11.390625 0 L 9.75 0 Z M 8.015625 -3.953125 L 5.671875 -9.28125 L 3.328125 -3.953125 Z M 8.015625 -3.953125 "/></g></g></g><g fill="#ff883e" fill-opacity="1"><g transform="translate(133.675907, 217.215659)"><g><path d="M 10.984375 -10.875 L 10.984375 0 L 9.703125 0 L 3.1875 -8.109375 L 3.1875 0 L 1.625 0 L 1.625 -10.875 L 2.90625 -10.875 L 9.421875 -2.765625 L 9.421875 -10.875 Z M 10.984375 -10.875 "/></g></g></g><g fill="#ff883e" fill-opacity="1"><g transform="translate(148.615961, 217.215659)"><g><path d="M 4.796875 0.125 C 3.984375 0.125 3.195312 0 2.4375 -0.25 C 1.675781 -0.507812 1.078125 -0.84375 0.640625 -1.25 L 1.21875 -2.453125 C 1.625 -2.078125 2.148438 -1.773438 2.796875 -1.546875 C 3.453125 -1.316406 4.117188 -1.203125 4.796875 -1.203125 C 5.703125 -1.203125 6.375 -1.351562 6.8125 -1.65625 C 7.257812 -1.957031 7.484375 -2.363281 7.484375 -2.875 C 7.484375 -3.25 7.359375 -3.550781 7.109375 -3.78125 C 6.867188 -4.007812 6.570312 -4.1875 6.21875 -4.3125 C 5.863281 -4.4375 5.359375 -4.578125 4.703125 -4.734375 C 3.890625 -4.929688 3.226562 -5.128906 2.71875 -5.328125 C 2.21875 -5.523438 1.789062 -5.828125 1.4375 -6.234375 C 1.082031 -6.640625 0.90625 -7.191406 0.90625 -7.890625 C 0.90625 -8.472656 1.054688 -8.992188 1.359375 -9.453125 C 1.660156 -9.921875 2.125 -10.296875 2.75 -10.578125 C 3.375 -10.859375 4.144531 -11 5.0625 -11 C 5.707031 -11 6.335938 -10.914062 6.953125 -10.75 C 7.578125 -10.582031 8.113281 -10.34375 8.5625 -10.03125 L 8.046875 -8.796875 C 7.585938 -9.078125 7.097656 -9.289062 6.578125 -9.4375 C 6.066406 -9.59375 5.5625 -9.671875 5.0625 -9.671875 C 4.1875 -9.671875 3.523438 -9.507812 3.078125 -9.1875 C 2.640625 -8.875 2.421875 -8.460938 2.421875 -7.953125 C 2.421875 -7.578125 2.546875 -7.269531 2.796875 -7.03125 C 3.046875 -6.800781 3.351562 -6.625 3.71875 -6.5 C 4.082031 -6.375 4.582031 -6.238281 5.21875 -6.09375 C 6.039062 -5.894531 6.695312 -5.695312 7.1875 -5.5 C 7.6875 -5.300781 8.113281 -5 8.46875 -4.59375 C 8.832031 -4.1875 9.015625 -3.644531 9.015625 -2.96875 C 9.015625 -2.394531 8.859375 -1.875 8.546875 -1.40625 C 8.234375 -0.9375 7.757812 -0.5625 7.125 -0.28125 C 6.5 -0.0078125 5.722656 0.125 4.796875 0.125 Z M 4.796875 0.125 "/></g></g></g><g fill="#ff883e" fill-opacity="1"><g transform="translate(160.590214, 217.215659)"><g><path d="M 5.875 -10.875 C 7.28125 -10.875 8.382812 -10.535156 9.1875 -9.859375 C 10 -9.191406 10.40625 -8.265625 10.40625 -7.078125 C 10.40625 -5.898438 10 -4.972656 9.1875 -4.296875 C 8.382812 -3.628906 7.28125 -3.296875 5.875 -3.296875 L 3.1875 -3.296875 L 3.1875 0 L 1.625 0 L 1.625 -10.875 Z M 5.828125 -4.640625 C 6.804688 -4.640625 7.554688 -4.847656 8.078125 -5.265625 C 8.597656 -5.691406 8.859375 -6.296875 8.859375 -7.078125 C 8.859375 -7.867188 8.597656 -8.472656 8.078125 -8.890625 C 7.554688 -9.304688 6.804688 -9.515625 5.828125 -9.515625 L 3.1875 -9.515625 L 3.1875 -4.640625 Z M 5.828125 -4.640625 "/></g></g></g><g fill="#ff883e" fill-opacity="1"><g transform="translate(174.132778, 217.215659)"><g><path d="M 6.53125 0.125 C 5.4375 0.125 4.445312 -0.113281 3.5625 -0.59375 C 2.6875 -1.070312 2 -1.738281 1.5 -2.59375 C 1 -3.445312 0.75 -4.394531 0.75 -5.4375 C 0.75 -6.476562 1 -7.421875 1.5 -8.265625 C 2 -9.117188 2.6875 -9.785156 3.5625 -10.265625 C 4.445312 -10.753906 5.4375 -11 6.53125 -11 C 7.625 -11 8.609375 -10.753906 9.484375 -10.265625 C 10.367188 -9.785156 11.054688 -9.125 11.546875 -8.28125 C 12.046875 -7.4375 12.296875 -6.488281 12.296875 -5.4375 C 12.296875 -4.382812 12.046875 -3.429688 11.546875 -2.578125 C 11.054688 -1.734375 10.367188 -1.070312 9.484375 -0.59375 C 8.609375 -0.113281 7.625 0.125 6.53125 0.125 Z M 6.53125 -1.265625 C 7.332031 -1.265625 8.050781 -1.441406 8.6875 -1.796875 C 9.320312 -2.160156 9.820312 -2.660156 10.1875 -3.296875 C 10.5625 -3.929688 10.75 -4.644531 10.75 -5.4375 C 10.75 -6.21875 10.5625 -6.925781 10.1875 -7.5625 C 9.820312 -8.207031 9.320312 -8.707031 8.6875 -9.0625 C 8.050781 -9.425781 7.332031 -9.609375 6.53125 -9.609375 C 5.738281 -9.609375 5.019531 -9.425781 4.375 -9.0625 C 3.726562 -8.707031 3.21875 -8.207031 2.84375 -7.5625 C 2.476562 -6.925781 2.296875 -6.21875 2.296875 -5.4375 C 2.296875 -4.644531 2.476562 -3.929688 2.84375 -3.296875 C 3.21875 -2.660156 3.726562 -2.160156 4.375 -1.796875 C 5.019531 -1.441406 5.738281 -1.265625 6.53125 -1.265625 Z M 6.53125 -1.265625 "/></g></g></g><g fill="#ff883e" fill-opacity="1"><g transform="translate(189.507625, 217.215659)"><g><path d="M 8.90625 0 L 6.546875 -3.34375 C 6.265625 -3.320312 6.039062 -3.3125 5.875 -3.3125 L 3.1875 -3.3125 L 3.1875 0 L 1.625 0 L 1.625 -10.875 L 5.875 -10.875 C 7.28125 -10.875 8.382812 -10.535156 9.1875 -9.859375 C 10 -9.191406 10.40625 -8.265625 10.40625 -7.078125 C 10.40625 -6.242188 10.195312 -5.53125 9.78125 -4.9375 C 9.363281 -4.34375 8.773438 -3.914062 8.015625 -3.65625 L 10.59375 0 Z M 5.828125 -4.625 C 6.804688 -4.625 7.554688 -4.835938 8.078125 -5.265625 C 8.597656 -5.691406 8.859375 -6.296875 8.859375 -7.078125 C 8.859375 -7.867188 8.597656 -8.472656 8.078125 -8.890625 C 7.554688 -9.304688 6.804688 -9.515625 5.828125 -9.515625 L 3.1875 -9.515625 L 3.1875 -4.625 Z M 5.828125 -4.625 "/></g></g></g><g fill="#ff883e" fill-opacity="1"><g transform="translate(203.127827, 217.215659)"><g><path d="M 3.796875 -9.515625 L 0.0625 -9.515625 L 0.0625 -10.875 L 9.0625 -10.875 L 9.0625 -9.515625 L 5.328125 -9.515625 L 5.328125 0 L 3.796875 0 Z M 3.796875 -9.515625 "/></g></g></g></svg>